<mxfile host="app.diagrams.net" agent="Mozilla/5.0 (Macintosh; Intel Mac OS X 10_15_7) AppleWebKit/537.36 (KHTML, like Gecko) Chrome/132.0.0.0 Safari/537.36" version="26.0.11">
  <diagram name="Page-1" id="a0uOgCm8QauijK2gECp4">
    <mxGraphModel dx="1288" dy="851" grid="1" gridSize="10" guides="1" tooltips="1" connect="1" arrows="1" fold="1" page="1" pageScale="1" pageWidth="1200" pageHeight="1920" math="0" shadow="0">
      <root>
        <mxCell id="0" />
        <mxCell id="1" parent="0" />
        <mxCell id="EItCaXE5j9np6sTrWRI1-5" value="Gym Owner" style="shape=umlActor;verticalLabelPosition=bottom;verticalAlign=top;html=1;outlineConnect=0;" vertex="1" parent="1">
          <mxGeometry x="90" y="360" width="30" height="60" as="geometry" />
        </mxCell>
        <mxCell id="EItCaXE5j9np6sTrWRI1-6" value="Register" style="ellipse;whiteSpace=wrap;html=1;" vertex="1" parent="1">
          <mxGeometry x="230" y="180" width="120" height="80" as="geometry" />
        </mxCell>
        <mxCell id="EItCaXE5j9np6sTrWRI1-7" value="Login" style="ellipse;whiteSpace=wrap;html=1;" vertex="1" parent="1">
          <mxGeometry x="590" y="260" width="120" height="80" as="geometry" />
        </mxCell>
        <mxCell id="EItCaXE5j9np6sTrWRI1-8" value="Edit Profile" style="ellipse;whiteSpace=wrap;html=1;" vertex="1" parent="1">
          <mxGeometry x="230" y="280" width="120" height="80" as="geometry" />
        </mxCell>
        <mxCell id="EItCaXE5j9np6sTrWRI1-9" value="Register Gym" style="ellipse;whiteSpace=wrap;html=1;" vertex="1" parent="1">
          <mxGeometry x="230" y="380" width="120" height="80" as="geometry" />
        </mxCell>
        <mxCell id="EItCaXE5j9np6sTrWRI1-10" value="Send Approval Request" style="ellipse;whiteSpace=wrap;html=1;" vertex="1" parent="1">
          <mxGeometry x="790" y="510" width="120" height="80" as="geometry" />
        </mxCell>
        <mxCell id="EItCaXE5j9np6sTrWRI1-12" value="View Registered Gym" style="ellipse;whiteSpace=wrap;html=1;" vertex="1" parent="1">
          <mxGeometry x="230" y="520" width="120" height="80" as="geometry" />
        </mxCell>
        <mxCell id="EItCaXE5j9np6sTrWRI1-13" value="Edit Gym Details" style="ellipse;whiteSpace=wrap;html=1;" vertex="1" parent="1">
          <mxGeometry x="230" y="630" width="120" height="80" as="geometry" />
        </mxCell>
        <mxCell id="EItCaXE5j9np6sTrWRI1-14" value="" style="html=1;labelBackgroundColor=#ffffff;startArrow=none;startFill=0;startSize=6;endArrow=classic;endFill=1;endSize=6;jettySize=auto;orthogonalLoop=1;strokeWidth=1;dashed=1;fontSize=14;rounded=0;exitX=1;exitY=0.5;exitDx=0;exitDy=0;" edge="1" parent="1" source="EItCaXE5j9np6sTrWRI1-9" target="EItCaXE5j9np6sTrWRI1-10">
          <mxGeometry width="60" height="60" relative="1" as="geometry">
            <mxPoint x="280" y="440" as="sourcePoint" />
            <mxPoint x="340" y="380" as="targetPoint" />
          </mxGeometry>
        </mxCell>
        <mxCell id="EItCaXE5j9np6sTrWRI1-15" value="&amp;lt;&amp;lt;includes&amp;gt;&amp;gt;" style="edgeLabel;html=1;align=center;verticalAlign=middle;resizable=0;points=[];" vertex="1" connectable="0" parent="EItCaXE5j9np6sTrWRI1-14">
          <mxGeometry x="-0.1929" y="3" relative="1" as="geometry">
            <mxPoint as="offset" />
          </mxGeometry>
        </mxCell>
        <mxCell id="EItCaXE5j9np6sTrWRI1-18" value="" style="html=1;labelBackgroundColor=#ffffff;startArrow=none;startFill=0;startSize=6;endArrow=classic;endFill=1;endSize=6;jettySize=auto;orthogonalLoop=1;strokeWidth=1;dashed=1;fontSize=14;rounded=0;exitX=1;exitY=0.5;exitDx=0;exitDy=0;entryX=0;entryY=0.5;entryDx=0;entryDy=0;" edge="1" parent="1" source="EItCaXE5j9np6sTrWRI1-8" target="EItCaXE5j9np6sTrWRI1-7">
          <mxGeometry width="60" height="60" relative="1" as="geometry">
            <mxPoint x="349.08" y="326.52" as="sourcePoint" />
            <mxPoint x="460.08" y="313.52" as="targetPoint" />
          </mxGeometry>
        </mxCell>
        <mxCell id="EItCaXE5j9np6sTrWRI1-19" value="&amp;lt;&amp;lt;includes&amp;gt;&amp;gt;" style="edgeLabel;html=1;align=center;verticalAlign=middle;resizable=0;points=[];" vertex="1" connectable="0" parent="EItCaXE5j9np6sTrWRI1-18">
          <mxGeometry x="-0.1929" y="3" relative="1" as="geometry">
            <mxPoint as="offset" />
          </mxGeometry>
        </mxCell>
        <mxCell id="EItCaXE5j9np6sTrWRI1-20" value="" style="html=1;labelBackgroundColor=#ffffff;startArrow=none;startFill=0;startSize=6;endArrow=classic;endFill=1;endSize=6;jettySize=auto;orthogonalLoop=1;strokeWidth=1;dashed=1;fontSize=14;rounded=0;entryX=0.5;entryY=1;entryDx=0;entryDy=0;" edge="1" parent="1" target="EItCaXE5j9np6sTrWRI1-7">
          <mxGeometry width="60" height="60" relative="1" as="geometry">
            <mxPoint x="350" y="560" as="sourcePoint" />
            <mxPoint x="410" y="500" as="targetPoint" />
            <Array as="points">
              <mxPoint x="480" y="580" />
              <mxPoint x="610" y="560" />
              <mxPoint x="640" y="450" />
            </Array>
          </mxGeometry>
        </mxCell>
        <mxCell id="EItCaXE5j9np6sTrWRI1-21" value="&amp;lt;&amp;lt;includes&amp;gt;&amp;gt;" style="edgeLabel;html=1;align=center;verticalAlign=middle;resizable=0;points=[];" vertex="1" connectable="0" parent="EItCaXE5j9np6sTrWRI1-20">
          <mxGeometry x="-0.2279" relative="1" as="geometry">
            <mxPoint as="offset" />
          </mxGeometry>
        </mxCell>
        <mxCell id="EItCaXE5j9np6sTrWRI1-22" value="" style="html=1;labelBackgroundColor=#ffffff;startArrow=none;startFill=0;startSize=6;endArrow=classic;endFill=1;endSize=6;jettySize=auto;orthogonalLoop=1;strokeWidth=1;dashed=1;fontSize=14;rounded=0;exitX=1;exitY=0.5;exitDx=0;exitDy=0;" edge="1" parent="1" source="EItCaXE5j9np6sTrWRI1-13">
          <mxGeometry width="60" height="60" relative="1" as="geometry">
            <mxPoint x="360" y="670" as="sourcePoint" />
            <mxPoint x="650" y="350" as="targetPoint" />
            <Array as="points">
              <mxPoint x="510" y="650" />
              <mxPoint x="660" y="610" />
              <mxPoint x="670" y="480" />
            </Array>
          </mxGeometry>
        </mxCell>
        <mxCell id="EItCaXE5j9np6sTrWRI1-23" value="&amp;lt;&amp;lt;includes&amp;gt;&amp;gt;" style="edgeLabel;html=1;align=center;verticalAlign=middle;resizable=0;points=[];" vertex="1" connectable="0" parent="EItCaXE5j9np6sTrWRI1-22">
          <mxGeometry x="-0.2835" relative="1" as="geometry">
            <mxPoint as="offset" />
          </mxGeometry>
        </mxCell>
        <mxCell id="EItCaXE5j9np6sTrWRI1-24" value="User Credential Database" style="rounded=1;whiteSpace=wrap;html=1;" vertex="1" parent="1">
          <mxGeometry x="1010" y="230" width="120" height="60" as="geometry" />
        </mxCell>
        <mxCell id="EItCaXE5j9np6sTrWRI1-25" value="Gym Database" style="rounded=1;whiteSpace=wrap;html=1;" vertex="1" parent="1">
          <mxGeometry x="1020" y="540" width="120" height="60" as="geometry" />
        </mxCell>
        <mxCell id="EItCaXE5j9np6sTrWRI1-26" value="" style="endArrow=none;html=1;rounded=0;entryX=0;entryY=0.5;entryDx=0;entryDy=0;exitX=1;exitY=0.3333333333333333;exitDx=0;exitDy=0;exitPerimeter=0;" edge="1" parent="1" source="EItCaXE5j9np6sTrWRI1-5" target="EItCaXE5j9np6sTrWRI1-6">
          <mxGeometry width="50" height="50" relative="1" as="geometry">
            <mxPoint x="160" y="400" as="sourcePoint" />
            <mxPoint x="210" y="350" as="targetPoint" />
          </mxGeometry>
        </mxCell>
        <mxCell id="EItCaXE5j9np6sTrWRI1-27" value="" style="endArrow=none;html=1;rounded=0;entryX=0;entryY=0.5;entryDx=0;entryDy=0;" edge="1" parent="1" target="EItCaXE5j9np6sTrWRI1-8">
          <mxGeometry width="50" height="50" relative="1" as="geometry">
            <mxPoint x="120" y="390" as="sourcePoint" />
            <mxPoint x="210" y="360" as="targetPoint" />
          </mxGeometry>
        </mxCell>
        <mxCell id="EItCaXE5j9np6sTrWRI1-28" value="" style="endArrow=none;html=1;rounded=0;" edge="1" parent="1" source="EItCaXE5j9np6sTrWRI1-5">
          <mxGeometry width="50" height="50" relative="1" as="geometry">
            <mxPoint x="160" y="400" as="sourcePoint" />
            <mxPoint x="230" y="420" as="targetPoint" />
          </mxGeometry>
        </mxCell>
        <mxCell id="EItCaXE5j9np6sTrWRI1-29" value="" style="endArrow=none;html=1;rounded=0;" edge="1" parent="1">
          <mxGeometry width="50" height="50" relative="1" as="geometry">
            <mxPoint x="120" y="390" as="sourcePoint" />
            <mxPoint x="230" y="560" as="targetPoint" />
          </mxGeometry>
        </mxCell>
        <mxCell id="EItCaXE5j9np6sTrWRI1-30" value="" style="endArrow=none;html=1;rounded=0;" edge="1" parent="1">
          <mxGeometry width="50" height="50" relative="1" as="geometry">
            <mxPoint x="120" y="390" as="sourcePoint" />
            <mxPoint x="230" y="670" as="targetPoint" />
          </mxGeometry>
        </mxCell>
        <mxCell id="EItCaXE5j9np6sTrWRI1-31" value="" style="endArrow=none;html=1;rounded=0;entryX=0;entryY=0.5;entryDx=0;entryDy=0;" edge="1" parent="1" target="EItCaXE5j9np6sTrWRI1-24">
          <mxGeometry width="50" height="50" relative="1" as="geometry">
            <mxPoint x="350" y="220" as="sourcePoint" />
            <mxPoint x="400" y="170" as="targetPoint" />
          </mxGeometry>
        </mxCell>
        <mxCell id="EItCaXE5j9np6sTrWRI1-32" value="" style="endArrow=none;html=1;rounded=0;entryX=0;entryY=0.5;entryDx=0;entryDy=0;" edge="1" parent="1" target="EItCaXE5j9np6sTrWRI1-24">
          <mxGeometry width="50" height="50" relative="1" as="geometry">
            <mxPoint x="710" y="300" as="sourcePoint" />
            <mxPoint x="1100" y="260" as="targetPoint" />
          </mxGeometry>
        </mxCell>
        <mxCell id="EItCaXE5j9np6sTrWRI1-33" value="" style="html=1;labelBackgroundColor=#ffffff;startArrow=none;startFill=0;startSize=6;endArrow=classic;endFill=1;endSize=6;jettySize=auto;orthogonalLoop=1;strokeWidth=1;dashed=1;fontSize=14;rounded=0;entryX=0;entryY=0.5;entryDx=0;entryDy=0;exitX=1;exitY=0.5;exitDx=0;exitDy=0;" edge="1" parent="1" source="EItCaXE5j9np6sTrWRI1-9" target="EItCaXE5j9np6sTrWRI1-7">
          <mxGeometry width="60" height="60" relative="1" as="geometry">
            <mxPoint x="340" y="400" as="sourcePoint" />
            <mxPoint x="400" y="340" as="targetPoint" />
          </mxGeometry>
        </mxCell>
        <mxCell id="EItCaXE5j9np6sTrWRI1-34" value="&amp;lt;&amp;lt;include&amp;gt;&amp;gt;" style="edgeLabel;html=1;align=center;verticalAlign=middle;resizable=0;points=[];" vertex="1" connectable="0" parent="EItCaXE5j9np6sTrWRI1-33">
          <mxGeometry x="-0.2048" y="3" relative="1" as="geometry">
            <mxPoint as="offset" />
          </mxGeometry>
        </mxCell>
        <mxCell id="EItCaXE5j9np6sTrWRI1-35" value="" style="endArrow=none;html=1;rounded=0;entryX=0;entryY=0.5;entryDx=0;entryDy=0;exitX=1;exitY=0.5;exitDx=0;exitDy=0;" edge="1" parent="1" target="EItCaXE5j9np6sTrWRI1-25" source="EItCaXE5j9np6sTrWRI1-10">
          <mxGeometry width="50" height="50" relative="1" as="geometry">
            <mxPoint x="580" y="400" as="sourcePoint" />
            <mxPoint x="630" y="350" as="targetPoint" />
          </mxGeometry>
        </mxCell>
        <mxCell id="EItCaXE5j9np6sTrWRI1-37" value="Remove Gym" style="ellipse;whiteSpace=wrap;html=1;" vertex="1" parent="1">
          <mxGeometry x="230" y="720" width="120" height="80" as="geometry" />
        </mxCell>
        <mxCell id="EItCaXE5j9np6sTrWRI1-41" value="Add Slots" style="ellipse;whiteSpace=wrap;html=1;" vertex="1" parent="1">
          <mxGeometry x="230" y="810" width="120" height="80" as="geometry" />
        </mxCell>
        <mxCell id="EItCaXE5j9np6sTrWRI1-45" value="Edit Slots" style="ellipse;whiteSpace=wrap;html=1;" vertex="1" parent="1">
          <mxGeometry x="230" y="900" width="120" height="80" as="geometry" />
        </mxCell>
        <mxCell id="EItCaXE5j9np6sTrWRI1-47" value="View Approved Gym List" style="ellipse;whiteSpace=wrap;html=1;" vertex="1" parent="1">
          <mxGeometry x="230" y="990" width="120" height="80" as="geometry" />
        </mxCell>
        <mxCell id="EItCaXE5j9np6sTrWRI1-51" value="View Pending Approval" style="ellipse;whiteSpace=wrap;html=1;" vertex="1" parent="1">
          <mxGeometry x="230" y="1080" width="120" height="80" as="geometry" />
        </mxCell>
        <mxCell id="EItCaXE5j9np6sTrWRI1-52" value="" style="html=1;labelBackgroundColor=#ffffff;startArrow=none;startFill=0;startSize=6;endArrow=classic;endFill=1;endSize=6;jettySize=auto;orthogonalLoop=1;strokeWidth=1;dashed=1;fontSize=14;rounded=0;exitX=1;exitY=0.5;exitDx=0;exitDy=0;entryX=0.562;entryY=0.979;entryDx=0;entryDy=0;entryPerimeter=0;" edge="1" parent="1" source="EItCaXE5j9np6sTrWRI1-37" target="EItCaXE5j9np6sTrWRI1-7">
          <mxGeometry width="60" height="60" relative="1" as="geometry">
            <mxPoint x="360" y="680" as="sourcePoint" />
            <mxPoint x="660" y="360" as="targetPoint" />
            <Array as="points">
              <mxPoint x="560" y="760" />
              <mxPoint x="690" y="660" />
              <mxPoint x="710" y="480" />
            </Array>
          </mxGeometry>
        </mxCell>
        <mxCell id="EItCaXE5j9np6sTrWRI1-53" value="&amp;lt;&amp;lt;includes&amp;gt;&amp;gt;" style="edgeLabel;html=1;align=center;verticalAlign=middle;resizable=0;points=[];" vertex="1" connectable="0" parent="EItCaXE5j9np6sTrWRI1-52">
          <mxGeometry x="-0.2835" relative="1" as="geometry">
            <mxPoint as="offset" />
          </mxGeometry>
        </mxCell>
        <mxCell id="EItCaXE5j9np6sTrWRI1-54" value="" style="html=1;labelBackgroundColor=#ffffff;startArrow=none;startFill=0;startSize=6;endArrow=classic;endFill=1;endSize=6;jettySize=auto;orthogonalLoop=1;strokeWidth=1;dashed=1;fontSize=14;rounded=0;exitX=1;exitY=0.5;exitDx=0;exitDy=0;" edge="1" parent="1" source="EItCaXE5j9np6sTrWRI1-41">
          <mxGeometry width="60" height="60" relative="1" as="geometry">
            <mxPoint x="360" y="770" as="sourcePoint" />
            <mxPoint x="670" y="370" as="targetPoint" />
            <Array as="points">
              <mxPoint x="580" y="830" />
              <mxPoint x="700" y="760" />
              <mxPoint x="720" y="490" />
            </Array>
          </mxGeometry>
        </mxCell>
        <mxCell id="EItCaXE5j9np6sTrWRI1-55" value="&amp;lt;&amp;lt;includes&amp;gt;&amp;gt;" style="edgeLabel;html=1;align=center;verticalAlign=middle;resizable=0;points=[];" vertex="1" connectable="0" parent="EItCaXE5j9np6sTrWRI1-54">
          <mxGeometry x="-0.2835" relative="1" as="geometry">
            <mxPoint as="offset" />
          </mxGeometry>
        </mxCell>
        <mxCell id="EItCaXE5j9np6sTrWRI1-56" value="" style="html=1;labelBackgroundColor=#ffffff;startArrow=none;startFill=0;startSize=6;endArrow=classic;endFill=1;endSize=6;jettySize=auto;orthogonalLoop=1;strokeWidth=1;dashed=1;fontSize=14;rounded=0;exitX=1;exitY=0.5;exitDx=0;exitDy=0;entryX=0.625;entryY=0.988;entryDx=0;entryDy=0;entryPerimeter=0;" edge="1" parent="1" source="EItCaXE5j9np6sTrWRI1-45" target="EItCaXE5j9np6sTrWRI1-7">
          <mxGeometry width="60" height="60" relative="1" as="geometry">
            <mxPoint x="360" y="860" as="sourcePoint" />
            <mxPoint x="680" y="380" as="targetPoint" />
            <Array as="points">
              <mxPoint x="590" y="920" />
              <mxPoint x="740" y="820" />
              <mxPoint x="730" y="500" />
            </Array>
          </mxGeometry>
        </mxCell>
        <mxCell id="EItCaXE5j9np6sTrWRI1-57" value="&amp;lt;&amp;lt;includes&amp;gt;&amp;gt;" style="edgeLabel;html=1;align=center;verticalAlign=middle;resizable=0;points=[];" vertex="1" connectable="0" parent="EItCaXE5j9np6sTrWRI1-56">
          <mxGeometry x="-0.2835" relative="1" as="geometry">
            <mxPoint as="offset" />
          </mxGeometry>
        </mxCell>
        <mxCell id="EItCaXE5j9np6sTrWRI1-58" value="" style="html=1;labelBackgroundColor=#ffffff;startArrow=none;startFill=0;startSize=6;endArrow=classic;endFill=1;endSize=6;jettySize=auto;orthogonalLoop=1;strokeWidth=1;dashed=1;fontSize=14;rounded=0;exitX=1;exitY=0.5;exitDx=0;exitDy=0;entryX=0.554;entryY=1.008;entryDx=0;entryDy=0;entryPerimeter=0;" edge="1" parent="1" source="EItCaXE5j9np6sTrWRI1-47" target="EItCaXE5j9np6sTrWRI1-7">
          <mxGeometry width="60" height="60" relative="1" as="geometry">
            <mxPoint x="360" y="950" as="sourcePoint" />
            <mxPoint x="690" y="390" as="targetPoint" />
            <Array as="points">
              <mxPoint x="620" y="970" />
              <mxPoint x="750" y="890" />
              <mxPoint x="740" y="510" />
            </Array>
          </mxGeometry>
        </mxCell>
        <mxCell id="EItCaXE5j9np6sTrWRI1-59" value="&amp;lt;&amp;lt;includes&amp;gt;&amp;gt;" style="edgeLabel;html=1;align=center;verticalAlign=middle;resizable=0;points=[];" vertex="1" connectable="0" parent="EItCaXE5j9np6sTrWRI1-58">
          <mxGeometry x="-0.2835" relative="1" as="geometry">
            <mxPoint as="offset" />
          </mxGeometry>
        </mxCell>
        <mxCell id="EItCaXE5j9np6sTrWRI1-60" value="" style="html=1;labelBackgroundColor=#ffffff;startArrow=none;startFill=0;startSize=6;endArrow=classic;endFill=1;endSize=6;jettySize=auto;orthogonalLoop=1;strokeWidth=1;dashed=1;fontSize=14;rounded=0;exitX=1;exitY=0.5;exitDx=0;exitDy=0;entryX=0.554;entryY=1.008;entryDx=0;entryDy=0;entryPerimeter=0;" edge="1" parent="1" source="EItCaXE5j9np6sTrWRI1-51">
          <mxGeometry width="60" height="60" relative="1" as="geometry">
            <mxPoint x="360" y="1040" as="sourcePoint" />
            <mxPoint x="666" y="351" as="targetPoint" />
            <Array as="points">
              <mxPoint x="666" y="1050" />
              <mxPoint x="760" y="900" />
              <mxPoint x="750" y="520" />
            </Array>
          </mxGeometry>
        </mxCell>
        <mxCell id="EItCaXE5j9np6sTrWRI1-61" value="&amp;lt;&amp;lt;includes&amp;gt;&amp;gt;" style="edgeLabel;html=1;align=center;verticalAlign=middle;resizable=0;points=[];" vertex="1" connectable="0" parent="EItCaXE5j9np6sTrWRI1-60">
          <mxGeometry x="-0.2835" relative="1" as="geometry">
            <mxPoint as="offset" />
          </mxGeometry>
        </mxCell>
        <mxCell id="EItCaXE5j9np6sTrWRI1-62" value="" style="endArrow=none;html=1;rounded=0;entryX=0.052;entryY=0.391;entryDx=0;entryDy=0;entryPerimeter=0;" edge="1" parent="1" target="EItCaXE5j9np6sTrWRI1-37">
          <mxGeometry width="50" height="50" relative="1" as="geometry">
            <mxPoint x="120" y="390" as="sourcePoint" />
            <mxPoint x="240" y="680" as="targetPoint" />
          </mxGeometry>
        </mxCell>
        <mxCell id="EItCaXE5j9np6sTrWRI1-63" value="" style="endArrow=none;html=1;rounded=0;entryX=0;entryY=0.5;entryDx=0;entryDy=0;" edge="1" parent="1" target="EItCaXE5j9np6sTrWRI1-41">
          <mxGeometry width="50" height="50" relative="1" as="geometry">
            <mxPoint x="120" y="390" as="sourcePoint" />
            <mxPoint x="220" y="840" as="targetPoint" />
          </mxGeometry>
        </mxCell>
        <mxCell id="EItCaXE5j9np6sTrWRI1-64" value="" style="endArrow=none;html=1;rounded=0;entryX=0;entryY=0.5;entryDx=0;entryDy=0;" edge="1" parent="1" target="EItCaXE5j9np6sTrWRI1-45">
          <mxGeometry width="50" height="50" relative="1" as="geometry">
            <mxPoint x="120" y="390" as="sourcePoint" />
            <mxPoint x="240" y="860" as="targetPoint" />
          </mxGeometry>
        </mxCell>
        <mxCell id="EItCaXE5j9np6sTrWRI1-65" value="" style="endArrow=none;html=1;rounded=0;entryX=0;entryY=0.5;entryDx=0;entryDy=0;" edge="1" parent="1" target="EItCaXE5j9np6sTrWRI1-47">
          <mxGeometry width="50" height="50" relative="1" as="geometry">
            <mxPoint x="120" y="390" as="sourcePoint" />
            <mxPoint x="220" y="940" as="targetPoint" />
          </mxGeometry>
        </mxCell>
        <mxCell id="EItCaXE5j9np6sTrWRI1-66" value="" style="endArrow=none;html=1;rounded=0;entryX=0.021;entryY=0.305;entryDx=0;entryDy=0;entryPerimeter=0;" edge="1" parent="1" target="EItCaXE5j9np6sTrWRI1-51">
          <mxGeometry width="50" height="50" relative="1" as="geometry">
            <mxPoint x="120" y="390" as="sourcePoint" />
            <mxPoint x="210" y="1040" as="targetPoint" />
          </mxGeometry>
        </mxCell>
        <mxCell id="EItCaXE5j9np6sTrWRI1-70" value="" style="rounded=0;whiteSpace=wrap;html=1;fillColor=none;" vertex="1" parent="1">
          <mxGeometry x="190" y="120" width="750" height="1070" as="geometry" />
        </mxCell>
      </root>
    </mxGraphModel>
  </diagram>
</mxfile>
